<svg version="1" xmlns="http://www.w3.org/2000/svg" width="4241.333" height="4241.333" viewBox="0 0 3181.000000 3181.000000"><path d="M322.5 4.7c-65.2 3.1-123.9 22.5-176 58.1C64.1 119.1 12.6 206.4 1.8 308c-1.9 18.6-1.9 2546.4 0 2565 8 75.6 37.7 141.8 87.8 196.2 55.4 60.1 130.3 97.1 214.4 106 18.6 1.9 2554.4 1.9 2573 0 75.6-8 141.8-37.7 196.2-87.8 60.2-55.6 97.1-130.1 106-214.4 1.9-18.6 1.9-2546.4 0-2565-11.6-109.7-71.2-203.1-164.6-257.9-40.1-23.6-82.9-37.5-135.6-44.3-7.4-.9-289.8-1.2-1280-1.3-698.8-.1-1273.2 0-1276.5.2zm690 249.7c56.5 9.2 104.8 33.8 145.1 74 41.5 41.6 65.6 90 74.6 150.1 1.8 12.1 1.8 55.9 0 68-5.6 37-17 69.7-34.7 99.4-20 33.5-48.3 63.1-81.7 85.3-12 8-38.1 21.2-52.2 26.3-73.7 27-156.1 19.5-223.1-20.2-34.2-20.2-65.5-50.4-87-83.8-30.8-47.6-45.4-106.7-40.5-162.5 8.2-92.1 61.8-170.9 144.1-211.9 28.3-14.1 58.8-23.1 90.4-26.4 9.7-1.1 55.3.2 65 1.7zM2393 1021.2V1155l-559.7.3c-606.2.3-563.5 0-599.7 5.2-89.4 13.1-141.7 48.1-162.9 109.1-10.2 29.3-13.9 59.2-14.1 111.9l-.1 33 23 .6c35.7 1 270.6.9 477.5-.1 103.1-.5 271.1-1.2 373.3-1.6l185.7-.7v278.5l-77.2-.6c-42.5-.4-281.1-.7-530.1-.9-381.9-.2-452.9 0-453.6 1.2-1.3 2-2.6 117.9-2.6 222.6 0 72.7.5 102.5 2 142 2.1 54.2 2.5 160.1 1.5 367-.5 103.4-.3 110.8 3.6 136 4.8 30.3 16.5 48.7 37.6 58.9 24.7 12 57.2 16 152.8 18.7 22.3.6 40.6 1.2 40.7 1.3 0 0 .3 61.3.4 136.1l.4 135.9-39-.2c-45.8-.3-88.3-1.6-119-3.7-151.3-10.3-254.1-43.5-320.2-103.7-55.5-50.4-85.1-134.5-94.9-269.8-2.3-31.5-3.5-362.3-3.1-834 .4-418.2.3-409 4.7-459 8-89.3 28.2-157.5 61.8-208.6 18.9-28.7 49.8-58.4 81.2-77.9 68.6-42.5 156.2-61.6 296-64.4 20.1-.4 305.9-.7 635.2-.7l598.8.1v133.7z"/></svg>