<svg version="1" xmlns="http://www.w3.org/2000/svg" width="7090.667" height="7090.667" viewBox="0 0 5318.000000 5318.000000"><path d="M1164.9 7.4c-.2.2-6.7.7-14.4 1.1-7.7.3-16.7.8-20 1-8 .6-21.1 1.6-25.5 2-1.9.2-7.1.6-11.5.9-4.4.4-9.6.9-11.5 1.1-1.9.3-5.7.7-8.5 1-2.7.3-6.6.8-8.6 1.1-2 .3-5.1.7-7 .9-5.6.5-21.2 2.6-23.9 3-1.4.3-4.3.7-6.5 1-2.2.3-5.1.7-6.5 1-1.3.3-4 .7-6 1-2 .3-4.7.8-6 1-1.4.3-4.5.8-7 1.1-2.5.3-6.4 1-8.8 1.5-2.3.5-5.9 1.2-8 1.5-2 .3-10.2 1.9-18.2 3.6-8 1.6-15.4 3.2-16.5 3.4-38.3 7.7-116 29.8-147 41.7-2.2.9-8.9 3.4-15 5.6-40.9 15-77 30.6-118.5 51.3-31.3 15.6-45.4 23-45.8 24-.2.5-.8.8-1.2.8-.5 0-5.5 2.6-11 5.7-5.5 3.2-10.9 6.2-11.8 6.8-2.4 1.4-27.7 16.6-30.7 18.5-1.3.8-5.2 3.3-8.7 5.4-8 5-33.6 22-40.8 27.1-17.3 12.1-46.4 33.4-51.5 37.7-1.1.9-6.7 5.4-12.5 9.9-11.4 9.1-31.4 25.5-37 30.5-1.9 1.7-8 7.1-13.5 11.9-5.5 4.9-10.7 9.6-11.6 10.4-.9.9-7 6.5-13.4 12.6-20.4 19-49.2 48.3-67 67.9-4.4 4.9-8.5 9.4-9 10-1 1-24.3 28.2-28.6 33.4-5.1 6-25.5 32-33.5 42.7-25.2 33.4-47.9 67.1-68.6 101.5-5.1 8.5-9.8 16.4-10.5 17.5-.7 1.1-1.6 2.7-2 3.5-.9 1.9-9 16-10.3 18-.6.8-1.3 2.2-1.7 3-.4.8-3.1 5.9-6 11.4-11.3 20.7-28.5 55.8-38.7 79.1-3.2 7.1-6.8 15.2-8 18-1.3 2.7-4.9 11.5-8 19.5L81 779c-1 2.5-3.7 9.7-6 16-2.3 6.3-4.6 12.4-5 13.5-4.3 10.3-17.3 51.6-25.9 82.5-12 42.9-25.3 104.5-29.6 136.7-.2 2.1-.6 4.7-.9 5.8-.3 1.9-1.3 8.4-2.2 15.2-.2 1.8-.6 4.8-.8 6.5-.3 1.8-.8 5.5-1.1 8.3-.3 2.7-.8 6.3-1 8-.2 1.6-.7 5.7-1 9-.3 3.3-.8 7.3-1 9-.2 1.6-.7 6.6-1 11-.4 4.4-.9 9.6-1.1 11.5-.1 1.9-.6 7.5-.9 12.5-.4 4.9-.8 11.5-1 14.5-.3 3-.8 12-1.2 20-1.1 19.3-1 2982.1 0 3002 .5 8.5 1 17.7 1.2 20.5.2 2.7.7 9 1 14 .4 4.9.8 10.3.9 12 .4 3.8 1.6 16.3 3.1 31 .7 7.1 1.4 13 2 16.5.2 1.4.7 5 1 8 .7 5.5 5 34.8 6 40.5 1 5.4 2.5 13.9 3.1 18 .3 2.2.7 4.2.9 4.5.2.3.6 2.6 1 5 .3 2.5.8 5.2 1 6 .2.8.7 2.8 1 4.5.2 1.6.7 4 1 5.3.3 1.2.7 3.2 1 4.5.3 1.2.8 3.5 1 5.2 1.6 9.1 11.9 51.1 17.6 71.8 15.2 54.8 33.6 106.6 57.3 161.2 8.3 19 33.4 70.6 42.9 88.1 8.4 15.4 20.1 35.9 28.2 49.4 12.6 20.8 14.9 24.5 15.8 24.8.4.2.7.8.7 1.3 0 2.9 49.6 73.8 64.4 92 1.2 1.4 3.5 4.3 5.1 6.4 4.6 6 20 24.9 22.8 28.1 1.4 1.6 7 8.2 12.6 14.7 5.6 6.6 10.7 12.5 11.4 13.1.6.7 4.8 5.3 9.2 10.1 25.7 28.5 66.2 68.4 91.5 90.5.9.8 4.3 3.7 7.5 6.5 3.2 2.7 6.3 5.4 6.9 6 8.2 7.3 27.4 22.9 52.6 42.8 4.2 3.4 39.6 29.1 47 34.2 57.6 39.8 127 79.2 185.2 105.3 7.3 3.3 15.8 7.1 18.8 8.5 3 1.4 10.7 4.6 17 7.2 6.3 2.5 13.3 5.4 15.5 6.4 2.2 1 5.1 2.2 6.5 2.6 1.4.4 3.9 1.3 5.5 2 1.7.7 6.6 2.7 11 4.3 4.4 1.7 8.9 3.4 10 3.8 1.1.4 2.2.8 2.5.9 2.8.7 8.7 2.9 9.6 3.6.6.5 2 1 3.2 1.2 1.2.2 2.5.6 2.8 1 .4.4 1.6.7 2.6.7s2.6.4 3.6 1c5.1 3 84.9 26.8 98.9 29.6.7.1 4 .9 7.5 1.8 7.4 1.8 27.2 6.5 30.8 7.2 1.4.2 8.1 1.6 15 3s13.6 2.8 15 3c2.3.4 7.3 1.3 10.8 2 .8.1 4.6.8 8.5 1.4 4 .7 8.1 1.4 9.2 1.6 3.8.7 20 3.2 25 3.9 5.9.7 25.9 3.4 29.5 4 1.4.2 5.9.6 10 1 4.1.3 8.2.8 9 1 .8.2 5.3.7 10 1 4.7.4 10.1.8 12 1 1.9.2 8.2.7 14 1 5.8.4 11.6.8 12.9 1 10.7 1.7 215.7 2 1526.6 2 1304.9 0 1511.5-.3 1528.5-2 1.9-.2 8.2-.6 14-1 5.8-.3 11.9-.8 13.5-1 1.7-.3 6.2-.7 10-1 3.9-.3 8.8-.8 11-1 2.2-.3 6.3-.8 9-1.1 2.8-.3 6.4-.7 8-.9 1.7-.2 5.5-.6 8.5-.9 3-.4 6.6-.9 8-1.1 1.4-.2 4.9-.7 7.9-1 3-.4 6.1-.8 7-1 1.6-.3 7.8-1.2 13.6-2.1 1.7-.3 5.5-.9 8.5-1.4 3-.5 7.1-1.1 9-1.4 5.1-.8 35.7-6.5 41-7.7 2.5-.6 5.6-1.3 7-1.5 17.3-3.2 65.7-15.6 96.5-24.7 34.6-10.3 91.2-30.5 115-41.2 1.7-.7 7.5-3.2 13-5.5 22-9.3 32.5-14.2 62.5-29.2 23.8-11.8 46-23.5 51-26.8.8-.5 3.1-1.8 5-2.8 12.5-6.5 51.4-30.5 75.5-46.5 24.1-16.2 64.4-45.4 76.5-55.6 1.9-1.6 8.5-6.9 14.5-11.7 10.5-8.4 26.9-22.2 36.5-30.8 2.5-2.3 6.8-6.1 9.5-8.5 23.4-20.6 63.2-60.3 86-85.6 4.4-4.9 8.7-9.6 9.5-10.5.8-.8 5.1-5.8 9.5-11 4.4-5.1 9.1-10.5 10.3-11.9 7-7.6 40.2-49.9 50.7-64.5 1.1-1.5 3.4-4.7 5.1-7 9.9-13.3 44.4-65 44.4-66.5 0-.5.4-1.1.8-1.3 1.3-.5 23.6-38.3 37.1-62.8 6.1-11.1 29-56.8 33.9-67.5 2.7-6.1 6-13.3 7.2-16 9.3-20.6 22.9-54.1 31.5-77.5 5.3-14.4 12.5-35.4 13-37.4.1-.6.5-1.8.8-2.6 2-5.3 17-55.2 18.2-60.9.2-.9 2.4-9.7 4.9-19.6 4.6-18.4 9.1-37.6 10-43 .3-1.7.8-3.9 1-5 1-4 6.4-32.3 7-36.1.4-2.1 1.1-6.6 1.7-9.9.6-3.3 1.2-6.9 1.4-8 .1-1.1 1.4-10 2.9-19.7 1.4-9.8 2.8-19.7 3.1-22 .2-2.4.7-6.8 1.1-9.8.3-3 .7-6.6.9-8 .1-1.4.5-5 .9-8 1.2-10.4 2.1-20.7 3.1-35.5.4-5.5.8-11.6 1-13.5.3-1.9.8-11.6 1.2-21.5 1.1-24.2 1-2979.5 0-3000.5-.5-9.1-1-18.5-1.2-21-.2-2.5-.6-8.6-1-13.5-.3-5-.8-10.6-1-12.5-.2-1.9-.6-7.1-1-11.5-.3-4.4-.8-9.1-1-10.5-.2-1.4-.6-5.4-1-9-.4-3.6-.8-7.9-1-9.5-.3-1.7-.7-5.4-1-8.3-.4-2.9-.8-6.1-1-7-.2-1-.6-4.5-1-7.7-.4-3.3-.9-6.7-1.1-7.7-.1-.9-.6-3.8-1-6.5-.3-2.6-.8-5.7-1-6.8-.3-1.1-.7-3.8-1-6-.6-4.9-1.3-9.2-1.9-12.5-.3-1.4-.8-3.6-1-5-.3-1.4-.8-4.1-1.1-6-.4-2.8-4.8-25.1-7-35.5-4.5-22-12.7-55.2-19.8-80-.1-.6-.8-3-1.5-5.5-.6-2.5-1.6-5.6-2.1-7-.5-1.4-2.5-7.9-4.5-14.5-15-48.7-36-103.5-56.1-146.4-2.4-5.1-4.4-9.5-4.4-9.7 0-1.6-30-60-37-71.9-1-1.7-2.9-5-4.2-7.5-1.4-2.5-4.9-8.6-7.8-13.5-2.9-5-5.8-9.9-6.4-11-3.4-5.8-8.2-13.7-11.7-19-2.1-3.3-4.2-6.7-4.6-7.5-1.2-2.6-24.1-36.9-34.1-51-8.8-12.5-37.5-50.8-42-56.2-1.1-1.3-6.6-7.9-12.3-14.8-8.5-10.4-25.5-30.4-29.4-34.6-.5-.6-5.3-5.8-10.5-11.5-27.5-30.2-62-64.3-90.5-89.4-10-8.8-10.5-9.3-16-13.8-2.7-2.3-5.7-5-6.8-6-2.7-2.7-41-33.3-49.7-39.8-38.4-28.5-56.8-41.2-90.5-62.2-69.1-43.2-138.7-77.4-218.5-107.4-12.9-4.9-51.5-17.9-65.5-22.1-20.8-6.3-27.9-8.4-29.5-8.7-.9-.2-4.8-1.2-8.6-2.4-6.3-1.8-44.5-11.3-50.4-12.5-1.4-.3-5.9-1.2-10-2.1-4.1-.9-8.6-1.9-10-2.1-1.4-.3-3.2-.7-4-.9-.8-.2-3.1-.7-5-1-1.9-.3-6.6-1.2-10.5-2-7.4-1.5-34.2-6.1-41-7-2.2-.3-5.1-.8-6.5-1-5.2-.9-20.3-3-28.5-4-2.7-.3-6.3-.8-8-1-1.6-.3-5.2-.7-8-1-2.7-.2-6.8-.7-9.1-.9-2.3-.3-7.2-.8-11-1.1-3.8-.3-9.1-.7-11.9-1-5.5-.6-13.2-1.1-27.5-2.1-5.2-.3-12.6-.9-16.5-1.2-7.9-.6-3003.9-1.4-3004.6-.8z"/></svg>