<svg version="1" xmlns="http://www.w3.org/2000/svg" width="682.667" height="682.667" viewBox="0 0 512.000000 512.000000"><path d="M104.5 1.1C59.1 5.9 20.4 36.8 6 79.8-.2 98.4 0 91.7 0 256c0 130.7.2 150.9 1.5 158.6 8.6 49 46.2 86.6 95.5 95.5 11.1 2.1 306.9 2.1 318 0 49.3-8.9 86.9-46.5 95.5-95.5 1.3-7.7 1.5-27.9 1.5-158.6 0-164.3.2-157.6-6-176.2C491.3 36 453 5.9 405.9 1c-12.3-1.2-289.4-1.2-301.4.1zm70 43.8c8.7 4.3 15.8 11.4 19.8 19.8 3 6.4 3.2 7.5 3.2 17.8s-.2 11.4-3.2 17.7c-4.1 8.8-11.3 16-20.1 20.1-6.3 3-7.4 3.2-17.7 3.2-10.4 0-11.4-.2-17.6-3.2-6.3-3.1-13.9-9.8-17.9-15.8-3.2-4.7-6-15.1-6-21.9 0-11.4 3.7-20.3 11.9-28.9 9.1-9.6 17.8-12.9 31.8-12.4 8 .4 10.2.9 15.8 3.6zM385 164.5V186h-92.2c-78 0-93.3.3-98.6 1.5-7.9 1.9-12.8 4.4-16.9 8.7-4.9 5.1-6.5 10-7.1 21.5l-.5 10.3H340v44l-85.2.2-85.3.3.4 70c.2 39.7.8 71.1 1.3 72.5 2.5 6.8 7.2 8.5 26.1 9.6l10.7.6v43.1l-16.7-.6c-48.7-1.7-67.5-13.4-73.9-46-1.5-7.2-1.7-20.6-2.1-106.7-.5-118.7-.1-127.2 7.8-143.7 7.3-15.3 23.8-24.7 47.6-27.2 4.3-.5 54.3-.9 111.1-1L385 143v21.5z"/></svg>